<svg xmlns="http://www.w3.org/2000/svg" xmlns:xlink="http://www.w3.org/1999/xlink" width="99" height="70" viewBox="0 0 99 70">
    <defs>
        <path id="a" d="M26.395 15.08a.72.72 0 0 1 .162.26c-.145.21-.214.463-.198.717a.471.471 0 0 0 .227.328 2.33 2.33 0 0 0 .983-.328c.33-.065.69-.095 1.013-.161.324-.066 1.068-.661.805-1.115-.162-.066-.458-.168-.506-.162-.48.064-.966.03-1.433-.095a8.835 8.835 0 0 0-1.053.555z"></path>
    </defs>
    <g fill="none" fill-rule="evenodd" transform="translate(16.59 11.667)">
        <path fill="#36ACB8" d="M44.864 34.148c-1.574-1.045-2.361-.505-2.361-.505a3.3 3.3 0 0 0 1.213 2.221c.782.617 1.761.931 2.758.884a3.43 3.43 0 0 0-1.61-2.6zm-23.567 6.058a4.646 4.646 0 0 0-.624 3.493s1.28.358 2.889-1.732a4.794 4.794 0 0 0 .95-4.144 5.547 5.547 0 0 0-3.21 2.398l-.005-.015zm-4.956-4.766a3.3 3.3 0 0 0-1.214 2.221s.787.505 2.362-.504a3.43 3.43 0 0 0 1.61-2.58 3.972 3.972 0 0 0-2.753.879l-.005-.016zm14.574 4.175a4.396 4.396 0 0 0-1.442 3.069 5.23 5.23 0 0 0 1.249 3.62 4.53 4.53 0 0 0 1.523-3.751c-.111-2.53-1.33-2.923-1.33-2.923v-.015zm8.566-.03a3.27 3.27 0 0 0 .427 2.478 4.015 4.015 0 0 0 2.33 1.696 3.397 3.397 0 0 0-.69-2.938c-1.178-1.484-2.067-1.221-2.067-1.221v-.015zm5.383-28.874a3.43 3.43 0 0 0 1.63-2.59 3.971 3.971 0 0 0-2.757.884 3.3 3.3 0 0 0-1.214 2.221s.767.54 2.341-.5v-.015zM17.23 12.766a3.43 3.43 0 0 0-1.61-2.58c-1.574-1.044-2.361-.504-2.361-.504a3.3 3.3 0 0 0 1.213 2.22c.773.632 1.76.947 2.758.879v-.015zm5.22-5.654a3.397 3.397 0 0 0-.69-2.937c-1.148-1.515-2.068-1.242-2.068-1.242a3.27 3.27 0 0 0 .427 2.478 3.939 3.939 0 0 0 2.33 1.701zm17.773-1.827a4.658 4.658 0 0 0 .95-4.079 5.584 5.584 0 0 0-3.215 2.348 4.455 4.455 0 0 0-.589 3.457s1.26.354 2.87-1.736l-.016.01zm-9.618-1.827A4.202 4.202 0 0 0 29.193 0a4.888 4.888 0 0 0-1.147 3.326 4.029 4.029 0 0 0 1.345 2.807s1.133-.368 1.23-2.685l-.016.01z"></path>
        <path fill="#4B4A4B" d="M3.61 34.507L0 19.53l6.464-1.514.559 2.281-4.2 1.01.985 4.078 3.047-.717.559 2.282-3.047.717.985 4.078 4.2-1.01.558 2.282zM14.767 32.32a3.571 3.571 0 0 1-2.758-.62 3.657 3.657 0 0 1-1.523-2.383L9.074 21.03a3.517 3.517 0 0 1 .625-2.74 3.638 3.638 0 0 1 2.397-1.515 3.658 3.658 0 0 1 2.752.617 3.616 3.616 0 0 1 1.483 2.386l.294 1.732-2.396.393-.295-1.792a1.296 1.296 0 0 0-.559-.883A1.235 1.235 0 0 0 12.36 19a1.179 1.179 0 0 0-.853.555c-.209.293-.29.656-.229 1.01l1.478 8.354c.043.34.227.648.508.848.284.203.64.285.985.227.35-.05.668-.23.889-.505a1.17 1.17 0 0 0 .228-.98l-.355-2.094 2.396-.394.36 2.12a3.517 3.517 0 0 1-.624 2.741 3.761 3.761 0 0 1-2.376 1.439zM51.725 28.505a4.104 4.104 0 0 1-1.25 2.58c-.48.452-1.087.748-1.741.847a3.575 3.575 0 0 1-1.316-.03 3.645 3.645 0 0 1-2.132-1.01 3.775 3.775 0 0 1-.95-1.665 5.47 5.47 0 0 1-.162-2.221l2.234.161a3.21 3.21 0 0 0 .426 2.02c.193.317.52.532.889.585a1.441 1.441 0 0 0 1.315-.555 1.7 1.7 0 0 0 .396-.98 2.825 2.825 0 0 0-.589-2.019c-.396-.505-.985-1.242-1.741-2.251a8.751 8.751 0 0 1-1.316-2.221 5.02 5.02 0 0 1-.198-2.221 3.784 3.784 0 0 1 1.905-2.938 3.614 3.614 0 0 1 2.234-.328 4.003 4.003 0 0 1 2.031.883c.425.365.743.838.92 1.368.21.585.288 1.21.228 1.827l-2.265.066a2.512 2.512 0 0 0-.33-1.514 1.118 1.118 0 0 0-.853-.505 1.018 1.018 0 0 0-1.051.424c-.245.31-.393.683-.427 1.075a3.432 3.432 0 0 0 .59 2.251c.273.398.57.779.888 1.141.332.348.64.72.919 1.11a7.74 7.74 0 0 1 1.051 1.858c.102.253.178.515.228.783.083.488.105.985.067 1.479zM54.482 33.043l-2.295-.455 3.117-15.072 2.296.454zM59.372 30.529l-1.442 3.296-2.361-.585 6.398-14.225 3.118.782-1.326 15.527-2.36-.62.36-3.534-2.387-.641zm3.28-7.764l-2.36 5.644 1.675.424.685-6.068z"></path>
        <path fill="#FF7950" d="M18.93 22.615c0 6.672 5.442 12.082 12.155 12.082 6.712 0 12.154-5.41 12.154-12.082 0-6.673-5.442-12.082-12.154-12.082-6.713 0-12.155 5.409-12.155 12.082zm2.214 4.095a10.625 10.625 0 0 1 2.307-11.64 10.784 10.784 0 0 1 11.705-2.328c4.016 1.65 6.636 5.543 6.636 9.863a10.622 10.622 0 0 1-3.129 7.541 10.753 10.753 0 0 1-7.578 3.132h-.03c-4.334 0-8.244-2.59-9.911-6.568z"></path>
        <path fill="#36ACB8" d="M22.17 22.617c0 4.893 3.991 8.86 8.914 8.86s8.914-3.967 8.914-8.86c0-4.893-3.99-8.86-8.914-8.86-4.923 0-8.914 3.967-8.914 8.86z"></path>
        <path fill="#D3DA31" d="M23.555 17.873c.119-.022.235-.028.322-.06.18-.1.349-.22.502-.358.13-.057.234-.02.33.018.12.047.228.096.358-.048.233-.258-.096-.782-.096-1.11a.591.591 0 0 1 .054-.198 8.932 8.932 0 0 0-1.47 1.756zM22.26 21.367a8.704 8.704 0 0 0-.057.522 8.93 8.93 0 0 0-.032.745 8.78 8.78 0 0 0 1.059 4.172c.093-.09.19-.155.283-.252.132-.227.293-.454.425-.686.274-.166.537-.352.785-.556.066-.197.162-.423.228-.62.065-.197.456-.454.395-.817-.147-.515-.805-.581-1.165-.94-.162-.226-.329-.504-.506-.716a3.047 3.047 0 0 0-1.407-.913l-.008.061zM31.945 16.295c-.43.116-.818.354-1.114.686-.228.358.065.585-.36.782a2.819 2.819 0 0 1-.653-.424.602.602 0 0 0-.456.263c-.03.393.264.453.264.847-.162.227-.558.263-.654.505-.097.242 0 .62-.197.848-.294.262-.588.555-.85.817a1.831 1.831 0 0 0 .13 2.22c.223.223.508.215.81.207.234-.006.476-.012.71.086.395.162.456.914.556 1.273.198.584-.161.847-.161 1.402 0 .555.197 2.155.983 2.12.885-.03 1.078-.914 1.57-1.514.217-.162.405-.36.557-.586 0-.292.03-.62.03-.913.197-.505.82-.686 1.144-1.075.325-.389.03-.65.198-.944a.03.03 0 0 0 .03-.03c.263-.161.507-.293.82-.454a5.87 5.87 0 0 1 .396-.455l.294-.095c1.012.505.653 1.564 1.372 2.12.066-.031.096-.066.162-.096.055-.147.087-.3.097-.455.15-.455.6-.741 1.078-.687.315.31.551.691.688 1.111.067.394-.197.62-.197.943.03.28.136.543.298.772v-.002a8.787 8.787 0 0 0 .51-2.952v-.004c0-.145-.004-.29-.011-.433l-.004-.068a8.806 8.806 0 0 0-2.474-5.634 3.813 3.813 0 0 0-.593.03c-.92.153-1.849.25-2.78.293-.772 0-1.217-.543-1.881-.543-.1 0-.202.011-.312.039zm.177 4.097c-.227-.03-.506-.03-.719-.065-.03 0-1.18-.914-1.21-.98a.39.39 0 0 1 .227-.226c.298.125.575.295.821.504l.456.096c.162.131.329.227.507.358.2.072.41.116.622.131 0 .03.03.066.03.096v.162c-.079.02-.154.049-.228.086a.906.906 0 0 1-.506-.162z"></path>
        <path fill="#D3DA31" d="M33.677 26.15a1.088 1.088 0 0 0-.556.884.503.503 0 0 0 .227.227c.36-.132.755-.717.506-1.075a.296.296 0 0 0-.143-.037l-.034.001z"></path>
        <use fill="#D3DA31" xlink:href="#a"></use>
    </g>
</svg>