<svg width="128" height="128" viewBox="0 0 128 128" fill="none" xmlns="http://www.w3.org/2000/svg">
<path fill-rule="evenodd" clip-rule="evenodd" d="M0 63.7877C0 99.0129 28.6551 127.575 64.0026 127.575C99.3449 127.575 128 99.0129 128 63.7877C128 28.5572 99.3449 0 64.0026 0C28.6551 0 0 28.5572 0 63.7877V63.7877ZM11.6579 85.4075C7.35609 75.1145 6.21414 63.7689 8.37807 52.8216C10.542 41.8744 15.9135 31.8232 23.8055 23.9534C31.7315 16.0493 41.8079 10.6667 52.7718 8.48032C63.7358 6.2939 75.0995 7.40089 85.4386 11.6626C106.585 20.3738 120.381 40.9272 120.381 63.7349C120.389 71.1327 118.938 78.4591 116.11 85.2921C113.283 92.125 109.134 98.3295 103.905 103.548C93.3044 114.128 78.9595 120.072 64.0026 120.084H63.8447C41.0238 120.084 20.4356 106.41 11.6579 85.4075V85.4075Z" fill="#FF7950"/>
<path fill-rule="evenodd" clip-rule="evenodd" d="M17.0604 63.7982C17.0604 89.6311 38.0751 110.575 63.9974 110.575C89.9196 110.575 110.934 89.6311 110.934 63.7982C110.934 37.9653 89.9249 17.0213 63.9974 17.0213C38.0751 17.0213 17.0604 37.9653 17.0604 63.7982Z" fill="#36ACB8"/>
<path fill-rule="evenodd" clip-rule="evenodd" d="M24.3531 38.752C24.9797 38.6359 25.5905 38.6042 26.0486 38.4352C26.9964 37.9073 27.8863 37.2737 28.6919 36.5452C29.3764 36.2442 29.924 36.4396 30.4295 36.6402C31.0614 36.8883 31.6301 37.147 32.3146 36.3868C33.5415 35.0246 31.8091 32.2582 31.8091 30.5265C31.8424 30.1641 31.9386 29.8103 32.0935 29.4811C29.1273 32.2256 26.5258 35.3415 24.3531 38.752V38.752ZM17.5342 57.1988C17.4066 58.1142 17.3065 59.0333 17.2341 59.9547C17.1233 61.2629 17.0671 62.5751 17.0656 63.888C17.0728 71.5803 18.9891 79.1499 22.6418 85.9143C23.1315 85.4392 23.6423 85.096 24.132 84.5839C24.827 83.3854 25.6748 82.187 26.3698 80.9621C27.8126 80.0857 29.1974 79.1037 30.5033 78.0267C30.8508 76.9866 31.3563 75.7934 31.7038 74.7534C32.0461 73.7133 34.1049 72.3564 33.7837 70.44C33.0097 67.721 29.5449 67.3725 27.6493 65.4772C26.7963 64.284 25.917 62.8163 24.985 61.697C23.0138 59.427 20.447 57.7569 17.5764 56.8768L17.5342 57.1988V57.1988ZM68.531 30.4209C66.2668 31.0333 64.2238 32.2898 62.6652 34.0427C61.4646 35.9327 63.0074 37.1312 60.7696 38.1713C59.5257 37.5881 58.3685 36.8348 57.3312 35.9327C56.8522 35.9667 56.3872 36.1094 55.9713 36.3499C55.5553 36.5904 55.1993 36.9226 54.9301 37.3213C54.7721 39.3961 56.3202 39.7129 56.3202 41.793C55.4672 42.9915 53.382 43.1816 52.8765 44.4592C52.3658 45.7369 52.8765 47.7326 51.8392 48.9363C50.2912 50.3195 48.7431 51.8664 47.3635 53.2497C46.1789 55.0079 45.6042 57.108 45.7279 59.2261C45.8516 61.3443 46.6669 63.3628 48.048 64.9703C49.2223 66.1477 50.7229 66.1054 52.3131 66.0632C53.5453 66.0315 54.8195 65.9998 56.0517 66.5172C58.1316 67.3725 58.4528 71.3428 58.9793 73.2381C60.0219 76.3214 58.1315 77.7099 58.1315 80.6401C58.1315 83.5702 59.1689 92.0175 63.3076 91.8327C67.9676 91.6744 68.9838 87.0072 71.5745 83.8395C72.7171 82.9842 73.707 81.9388 74.5074 80.7457C74.5074 79.204 74.6654 77.4723 74.6654 75.9254C75.7027 73.2592 78.9831 72.3036 80.6891 70.2499C82.4004 68.1961 80.8471 66.8182 81.7317 65.266C81.7524 65.266 81.773 65.2619 81.7922 65.2539C81.8113 65.246 81.8287 65.2343 81.8434 65.2196C81.8581 65.2049 81.8697 65.1874 81.8777 65.1682C81.8856 65.149 81.8897 65.1284 81.8897 65.1076C83.2745 64.2576 84.5593 63.5607 86.2074 62.7107C86.8609 61.8746 87.5569 61.0728 88.2926 60.3085L89.8406 59.8069C95.1694 62.4731 93.279 68.0642 97.065 70.9996C97.4125 70.8359 97.5705 70.6511 97.918 70.4927C98.2076 69.7167 98.3761 68.9089 98.4287 68.0905C99.2186 65.6883 101.588 64.1784 104.105 64.4635C105.764 66.1002 107.006 68.1117 107.728 70.3291C108.08 72.4092 106.69 73.6024 106.69 75.3077C106.848 76.786 107.406 78.1745 108.26 79.3835V79.373C110.038 74.3703 110.946 69.0986 110.945 63.7877V63.7666C110.945 63.001 110.924 62.2355 110.887 61.4805L110.866 61.1215C110.232 49.9584 105.607 39.3983 97.839 31.3765C96.7957 31.3478 95.7517 31.4008 94.7165 31.5349C89.8722 32.3426 84.9805 32.8547 80.0783 33.0818C76.0133 33.0818 73.6702 30.215 70.1738 30.215C69.6473 30.215 69.1102 30.273 68.531 30.4209V30.4209ZM69.463 52.0512C68.2677 51.8929 66.7986 51.8928 65.6771 51.7081C65.5191 51.7081 59.4637 46.8825 59.3058 46.5341C59.4094 46.2617 59.5695 46.0145 59.7756 45.8088C59.9816 45.6031 60.2289 45.4436 60.501 45.3409C62.0702 46.0009 63.5287 46.8984 64.824 48.0018L67.2251 48.5087C68.0782 49.2003 68.9575 49.7071 69.8948 50.3987C70.9479 50.7789 72.0536 51.0112 73.1699 51.0904C73.1699 51.2487 73.3279 51.4388 73.3279 51.5972V52.4525C72.9119 52.5581 72.517 52.7112 72.1273 52.9065C71.1739 52.8948 70.2459 52.5969 69.463 52.0512Z" fill="#D3DA31"/>
<path fill-rule="evenodd" clip-rule="evenodd" d="M77.6509 82.4509C76.8117 82.9202 76.1038 83.5937 75.5922 84.4093C75.0806 85.2248 74.7818 86.1563 74.7233 87.118C74.9805 87.6377 75.4003 88.0586 75.9186 88.3165C77.8142 87.6196 79.894 84.5311 78.5829 82.641C78.3524 82.5131 78.0934 82.4459 77.83 82.4456L77.6509 82.4509V82.4509Z" fill="#D3DA31"/>
<path d="M39.3073 24.0061C39.6865 24.3971 39.9775 24.8652 40.1603 25.3788C39.3968 26.4875 39.0335 27.8233 39.1177 29.1643C39.1784 29.523 39.317 29.864 39.5235 30.1633C39.73 30.4625 39.9995 30.7126 40.313 30.896C42.1461 30.7156 43.9152 30.1238 45.489 29.1643C47.2267 28.8211 49.1222 28.6627 50.823 28.3143C52.5291 27.9658 56.4466 24.8245 55.0618 22.4276C54.2088 22.0791 52.6502 21.5406 52.3974 21.5723C49.87 21.9102 47.3109 21.7307 44.8519 21.0707C42.9401 21.9213 41.0877 22.9003 39.3073 24.0009V24.0061Z" fill="#D3DA31"/>
<g filter="url(#filter0_d)">
<rect width="70.5904" height="70.8064" rx="6" transform="matrix(0.97656 0.215243 -0.213866 0.976863 35.3271 20.6769)" fill="white"/>
<rect width="70.5904" height="70.8064" rx="6" transform="matrix(0.97656 0.215243 -0.213866 0.976863 35.3271 20.6769)" stroke="black" stroke-width="7"/>
</g>
<path d="M55.0361 67.5932C54.2927 66.0284 53.5807 64.5328 52.9001 63.1064C52.2195 61.6799 51.5537 60.2567 50.9027 58.8368C50.2517 57.4169 49.5891 55.9789 48.915 54.5227C48.2705 53.0731 47.5766 51.5659 46.8332 50.0011C46.3574 50.3321 45.9029 50.6366 45.4696 50.9147C45.0429 51.1631 44.5833 51.4199 44.0909 51.6849C43.5903 53.9718 43.1189 56.125 42.6767 58.1445C42.2707 60.1409 41.8173 62.2825 41.3167 64.5693L35.9443 63.3852L43.0154 31.0872L48.3877 32.2714L45.7446 44.3441C45.6861 44.6114 45.598 44.8722 45.4802 45.1264C45.3986 45.3575 45.3286 45.6067 45.27 45.874C45.4636 45.6987 45.6506 45.5531 45.8311 45.4373C46.0181 45.2917 46.2116 45.1164 46.4116 44.9114C48.9488 43.3848 51.4283 41.7676 53.85 40.0598C56.2782 38.3224 58.7642 36.6754 61.3079 35.1191L67.4794 36.4794C64.7523 38.3066 62.0367 40.152 59.3327 42.0154C56.6582 43.8854 53.9575 45.734 51.2303 47.5613C52.1224 49.439 52.965 51.2592 53.7582 53.0218C54.5875 54.7612 55.3871 56.4941 56.1572 58.2204C56.9569 59.9533 57.7533 61.701 58.5465 63.4636C59.3397 65.2262 60.1675 67.0431 61.03 68.9144L55.0361 67.5932Z" fill="black"/>
<path d="M75.7637 71.1509C80.1475 72.1171 82.2798 76.4754 81.4246 80.3816C80.0664 86.5857 75.2122 87.9244 69.3958 88.0188C70.4737 89.0478 70.9954 89.9542 71.2331 90.5916C71.5147 91.3418 71.7804 91.538 72.5105 91.4925C79.5901 90.9539 83.866 87.8705 85.2027 81.7649C86.6329 75.2326 83.0836 69.3577 75.2319 67.6272C70.8154 66.6537 67.0314 67.3337 63.6796 69.4853C60.8067 71.3296 58.8042 74.0539 58.1143 77.2052C56.9429 82.5557 59.179 86.2831 62.0579 86.9176C64.5116 87.4584 66.5002 86.5204 68.446 84.3685C71.1635 81.3545 73.6586 76.5365 75.6328 71.1221L75.7637 71.1509ZM71.7947 70.4826C70.2827 74.7258 67.7757 79.1282 65.7541 81.4698C64.5258 82.8507 63.7127 83.1188 62.8621 82.9313C61.8479 82.7078 61.0039 80.7669 61.6651 77.7469C62.1251 75.6461 63.588 73.6631 65.5464 72.2366C67.3707 70.9527 69.404 70.4374 71.7947 70.4826Z" fill="black"/>
<defs>
<filter id="filter0_d" x="17.8274" y="18.3248" width="90.7922" height="93.0666" filterUnits="userSpaceOnUse" color-interpolation-filters="sRGB">
<feFlood flood-opacity="0" result="BackgroundImageFix"/>
<feColorMatrix in="SourceAlpha" type="matrix" values="0 0 0 0 0 0 0 0 0 0 0 0 0 0 0 0 0 0 127 0"/>
<feOffset dx="2" dy="4"/>
<feColorMatrix type="matrix" values="0 0 0 0 0 0 0 0 0 0 0 0 0 0 0 0 0 0 0.45 0"/>
<feBlend mode="normal" in2="BackgroundImageFix" result="effect1_dropShadow"/>
<feBlend mode="normal" in="SourceGraphic" in2="effect1_dropShadow" result="shape"/>
</filter>
</defs>
</svg>
